<svg width="24" height="24" viewBox="0 0 24 24" fill="none" xmlns="http://www.w3.org/2000/svg">
<g id="Frame" clip-path="url(#clip0_20_64)">
<path id="Vector" d="M11.624 7.22198C10.748 7.22198 9.392 6.22598 7.964 6.26198C6.08 6.28598 4.352 7.35397 3.38 9.04597C1.424 12.442 2.876 17.458 4.784 20.218C5.72 21.562 6.824 23.074 8.288 23.026C9.692 22.966 10.22 22.114 11.924 22.114C13.616 22.114 14.096 23.026 15.584 22.99C17.096 22.966 18.056 21.622 18.98 20.266C20.048 18.706 20.492 17.194 20.516 17.11C20.48 17.098 17.576 15.982 17.54 12.622C17.516 9.81397 19.832 8.46998 19.94 8.40998C18.62 6.47798 16.592 6.26198 15.884 6.21398C14.036 6.06998 12.488 7.22198 11.624 7.22198ZM14.744 4.38998C15.524 3.45398 16.04 2.14598 15.896 0.849976C14.78 0.897976 13.436 1.59398 12.632 2.52998C11.912 3.35798 11.288 4.68998 11.456 5.96198C12.692 6.05798 13.964 5.32598 14.744 4.38998Z" fill="white"/>
</g>
<defs>
<clipPath id="clip0_20_64">
<rect width="24" height="24" fill="white"/>
</clipPath>
</defs>
</svg>
