<svg width="19" height="14" viewBox="0 0 19 14" fill="none" xmlns="http://www.w3.org/2000/svg">
<g id="Frame" clip-path="url(#clip0_20_26)">
<path id="Vector" d="M5 7.49997C5.60819 4.37108 8.51132 1.99997 12 1.99997C15.4887 1.99997 18.3912 4.37108 19 7.49997C18.3918 10.6289 15.4887 13 12 13C8.51132 13 5.60884 10.6289 5 7.49997ZM12 10.5555C12.858 10.5555 13.6808 10.2336 14.2875 9.66057C14.8942 9.08755 15.235 8.31035 15.235 7.49997C15.235 6.68959 14.8942 5.91239 14.2875 5.33937C13.6808 4.76634 12.858 4.44441 12 4.44441C11.142 4.44441 10.3192 4.76634 9.71247 5.33937C9.10578 5.91239 8.76495 6.68959 8.76495 7.49997C8.76495 8.31035 9.10578 9.08755 9.71247 9.66057C10.3192 10.2336 11.142 10.5555 12 10.5555ZM12 9.3333C11.4852 9.3333 10.9915 9.14015 10.6275 8.79633C10.2635 8.45252 10.059 7.9862 10.059 7.49997C10.059 7.01374 10.2635 6.54742 10.6275 6.20361C10.9915 5.85979 11.4852 5.66664 12 5.66664C12.5148 5.66664 13.0085 5.85979 13.3725 6.20361C13.7365 6.54742 13.941 7.01374 13.941 7.49997C13.941 7.9862 13.7365 8.45252 13.3725 8.79633C13.0085 9.14015 12.5148 9.3333 12 9.3333Z" fill="white"/>
</g>
<defs>
<clipPath id="clip0_20_26">
<rect width="19" height="14" fill="white"/>
</clipPath>
</defs>
</svg>
