<svg width="68" height="47" viewBox="0 0 68 47" fill="none" xmlns="http://www.w3.org/2000/svg">
<g id="Continnue Button">
<rect x="68" y="46.1429" width="68" height="46.1429" rx="6" transform="rotate(180 68 46.1429)" fill="#0F0F0F" fill-opacity="0.5"/>
<path id="Vector" d="M34 28.5715C33.1116 28.5715 32.2232 28.226 31.5506 27.5479L23.276 19.206C22.908 18.8349 22.908 18.2208 23.276 17.8498C23.6441 17.4787 24.2532 17.4787 24.6213 17.8498L32.8959 26.1917C33.505 26.8058 34.4949 26.8058 35.1041 26.1917L43.3787 17.8497C43.7468 17.4787 44.3559 17.4787 44.724 17.8497C45.092 18.2208 45.092 18.8349 44.724 19.206L36.4494 27.5479C35.7767 28.226 34.8884 28.5715 34 28.5715Z" fill="#E5E4E2"/>
</g>
</svg>
